HIERARCHY
ROOT Hips
{
	OFFSET 72.100998 -19.263716 93.811600
	CHANNELS 6 Xposition Yposition Zposition Xrotation Yrotation Zrotation
	JOINT spine
	{
		OFFSET 0.000000 -0.448574 7.800583
		CHANNELS 3 Xrotation Yrotation Zrotation
		JOINT spine1
		{
			OFFSET 0.000000 -0.000002 10.136398
			CHANNELS 3 Xrotation Yrotation Zrotation
			JOINT spine2
			{
				OFFSET 0.000000 0.000000 9.712509
				CHANNELS 3 Xrotation Yrotation Zrotation
				JOINT Neck
				{
					OFFSET 0.000000 -1.188875 24.936096
					CHANNELS 3 Xrotation Yrotation Zrotation
					JOINT Head
					{
						OFFSET 0.000000 0.000000 7.533844
						CHANNELS 3 Xrotation Yrotation Zrotation
						End Site
						{
							OFFSET 0.000000 6.014017 18.236099
						}
					}
				}
				JOINT RightShoulder
				{
					OFFSET -4.089653 0.569454 10.488800
					CHANNELS 3 Xrotation Yrotation Zrotation
					JOINT RightArm
					{
						OFFSET 0.000000 -0.000002 13.757004
						CHANNELS 3 Xrotation Yrotation Zrotation
						JOINT RightArmRoll
						{
							OFFSET 0.000000 -0.000002 6.944778
							CHANNELS 3 Xrotation Yrotation Zrotation
							JOINT RightForeArm
							{
								OFFSET 0.000000 -0.000004 20.227692
								CHANNELS 3 Xrotation Yrotation Zrotation
								JOINT RightForeArmRoll
								{
									OFFSET 0.000000 0.000000 7.793121
									CHANNELS 3 Xrotation Yrotation Zrotation
									JOINT RightHand
									{
										OFFSET 0.000000 -0.000004 15.639099
										CHANNELS 3 Xrotation Yrotation Zrotation
										End Site
										{
											OFFSET 0.000000 0.000000 0.100006
										}
									}
								}
							}
						}
					}
				}
				JOINT LeftShoulder
				{
					OFFSET 4.089653 0.569454 10.488800
					CHANNELS 3 Xrotation Yrotation Zrotation
					JOINT LeftArm
					{
						OFFSET 0.000000 -0.000002 13.757004
						CHANNELS 3 Xrotation Yrotation Zrotation
						JOINT LeftArmRoll
						{
							OFFSET 0.000000 -0.000002 6.944778
							CHANNELS 3 Xrotation Yrotation Zrotation
							JOINT LeftForeArm
							{
								OFFSET 0.000000 -0.000004 20.227692
								CHANNELS 3 Xrotation Yrotation Zrotation
								JOINT LeftForeArmRoll
								{
									OFFSET 0.000000 0.000000 7.793121
									CHANNELS 3 Xrotation Yrotation Zrotation
									JOINT LeftHand
									{
										OFFSET 0.000000 -0.000004 15.639099
										CHANNELS 3 Xrotation Yrotation Zrotation
										End Site
										{
											OFFSET 0.000000 0.000000 0.100006
										}
									}
								}
							}
						}
					}
				}
			}
		}
	}
	JOINT RightUpLeg
	{
		OFFSET -6.914154 1.063580 -1.267883
		CHANNELS 3 Xrotation Yrotation Zrotation
		JOINT RightUpLegRoll
		{
			OFFSET 0.000000 -0.000002 18.337799
			CHANNELS 3 Xrotation Yrotation Zrotation
			JOINT RightLeg
			{
				OFFSET 0.000000 0.000002 -22.708496
				CHANNELS 3 Xrotation Yrotation Zrotation
				JOINT RightLegRoll
				{
					OFFSET 0.000000 -0.000002 22.782799
					CHANNELS 3 Xrotation Yrotation Zrotation
					JOINT RightFoot
					{
						OFFSET 0.000000 -0.000004 18.962898
						CHANNELS 3 Xrotation Yrotation Zrotation
						JOINT RightToeBase
						{
							OFFSET 0.000000 -0.000002 15.852005
							CHANNELS 3 Xrotation Yrotation Zrotation
							End Site
							{
								OFFSET 0.006721 0.884892 7.677017
							}
						}
					}
				}
			}
		}
	}
	JOINT LeftUpLeg
	{
		OFFSET 6.914154 1.063580 -1.267883
		CHANNELS 3 Xrotation Yrotation Zrotation
		JOINT LeftUpLegRoll
		{
			OFFSET 0.000000 -0.000002 18.337898
			CHANNELS 3 Xrotation Yrotation Zrotation
			JOINT LeftLeg
			{
				OFFSET 0.000000 -0.000004 22.708397
				CHANNELS 3 Xrotation Yrotation Zrotation
				JOINT LeftLegRoll
				{
					OFFSET 0.000000 -0.000004 22.993393
					CHANNELS 3 Xrotation Yrotation Zrotation
					JOINT LeftFoot
					{
						OFFSET 0.000000 -0.000004 18.752197
						CHANNELS 3 Xrotation Yrotation Zrotation
						JOINT LeftToeBase
						{
							OFFSET 0.000000 -0.000002 15.852005
							CHANNELS 3 Xrotation Yrotation Zrotation
							End Site
							{
								OFFSET -0.030113 0.884892 7.677002
							}
						}
					}
				}
			}
		}
	}
}
MOTION
Frames: 7
Frame Time: 0.041667
57.412697 -17.773117 91.973198 -0.976416 -2.313842 47.130177 -2.783438 0.668732 0.520086 -1.570274 1.317046 1.065970 0.074863 1.329728 1.050107 25.881453 -0.864043 11.405884 -9.238043 5.037501 11.170121 -17.846548 -55.178001 -21.072148 427.821412 -22.202227 476.233683 -0.000026 0.000000 0.000000 131.883849 -6.706474 16.775091 -0.000011 0.000007 -3.003680 -5.000206 -7.999516 -0.000096 -6.308501 55.492319 7.157409 -102.476388 124.599822 98.032694 0.000003 0.000003 0.000001 35.624682 6.503693 -0.278505 0.000002 -0.000002 2.999999 -5.000199 7.999848 -0.000029 7.996657 -176.245751 2.851985 -179.999991 0.000004 -1.293001 159.213321 -0.571229 -0.518828 0.000000 0.000002 1.336308 84.005371 6.368954 2.729224 28.017233 -7.199955 3.669086 -20.227819 173.450386 4.261259 -0.000007 -0.000005 -0.813499 -17.499018 6.246588 1.192030 -0.000006 0.000004 -0.095794 71.224755 -5.744303 -5.120263 25.456962 7.355611 -0.000009 
57.542694 -17.788723 91.995201 -0.914400 -2.355721 47.344310 -2.787866 0.679137 0.529778 -1.579340 1.337412 1.085821 0.065797 1.350338 1.069705 25.737927 -0.388109 11.209198 -9.230248 4.498649 11.022469 -17.594257 -54.785156 -20.761629 428.499130 -21.786010 476.511645 -0.000026 -0.000000 -0.000000 131.832323 -6.710678 16.657238 -0.000005 0.000007 -3.003681 -5.000206 -7.999518 -0.000098 -6.343563 56.057589 7.245917 -102.584196 124.514499 98.297480 -0.000001 -0.000000 0.000002 35.843986 6.591049 -0.298116 0.000003 -0.000003 2.999999 -5.000199 7.999853 -0.000031 8.081025 -176.204947 2.857244 -179.999991 0.000005 -1.294001 159.197352 -0.507599 -0.508844 0.000003 0.000002 1.346258 83.942239 6.367221 2.741350 28.113383 -7.190669 3.749674 -20.230694 173.600883 4.298875 -0.000006 -0.000003 -0.821101 -17.550490 6.270852 1.195562 -0.000006 0.000004 -0.096270 71.309333 -5.774587 -5.037002 25.456967 7.355620 -0.000011 
57.659996 -17.798828 91.997894 -0.852634 -2.396983 47.559338 -2.791500 0.689232 0.538963 -1.586815 1.357189 1.104646 0.058330 1.370339 1.088271 25.581036 0.100884 11.015003 -9.214678 3.949530 10.876590 -17.342313 -54.386478 -20.449861 429.167232 -21.355618 476.871623 -0.000026 0.000000 -0.000000 131.812775 -6.731862 16.604043 -0.000012 0.000009 -3.003681 -5.000209 -7.999517 -0.000097 -6.390154 56.621251 7.347697 -102.690781 124.427687 98.562587 -0.000002 -0.000001 -0.000000 36.064386 6.677958 -0.318002 0.000003 -0.000002 3.000001 -5.000201 7.999846 -0.000031 8.163078 -176.159198 2.864254 -179.999991 0.000005 -1.295998 159.176356 -0.439295 -0.498078 -0.000003 0.000001 1.356262 83.865277 6.365758 2.752270 28.221864 -7.180115 3.835874 -20.220123 173.753674 4.338360 -0.000009 -0.000003 -0.828725 -17.578706 6.291997 1.197174 -0.000006 0.000004 -0.096802 71.387218 -5.804075 -4.955514 25.456965 7.355613 -0.000010 
57.779495 -17.815222 92.006607 -0.791285 -2.437687 47.776244 -2.794627 0.699146 0.547657 -1.593270 1.376638 1.122475 0.051874 1.389998 1.105879 25.416799 0.602526 10.826293 -9.194556 3.389949 10.734084 -17.088525 -53.982947 -20.135095 429.821400 -20.906536 477.315640 -0.000026 -0.000001 -0.000000 131.822883 -6.769804 16.615267 -0.000010 0.000004 -3.003680 -5.000206 -7.999516 -0.000096 -6.446790 57.188091 7.461630 -102.803438 124.340821 98.836034 -0.000001 0.000003 -0.000001 36.284345 6.765454 -0.337940 0.000002 -0.000000 3.000001 -5.000200 7.999852 -0.000032 8.243886 -176.109488 2.870933 -179.999991 0.000005 -1.296992 159.151358 -0.366328 -0.487516 -0.000000 0.000001 1.366462 83.775658 6.364585 2.762102 28.341882 -7.168258 3.927568 -20.198558 173.906028 4.380191 -0.000006 -0.000003 -0.836351 -17.588236 6.311098 1.197241 -0.000006 0.000004 -0.097340 71.460492 -5.833169 -4.874959 25.456965 7.355619 -0.000010 
57.916691 -17.804415 92.014893 -0.730210 -2.477809 47.994626 -2.797212 0.708880 0.555944 -1.598633 1.395757 1.139464 0.046515 1.409308 1.122633 25.244615 1.115949 10.642155 -9.169473 2.820657 10.594414 -16.833529 -53.574901 -19.817968 430.459722 -20.438115 477.833587 -0.000026 -0.000000 -0.000000 131.858113 -6.822609 16.681911 -0.000010 0.000006 -3.003681 -5.000207 -7.999515 -0.000097 -6.513330 57.756920 7.587312 -102.920787 124.253995 99.115949 0.000002 0.000000 0.000000 36.503266 6.853258 -0.357933 0.000001 -0.000002 3.000000 -5.000202 7.999851 -0.000029 8.323369 -176.056841 2.877602 -179.999991 0.000005 -1.299004 159.122521 -0.289652 -0.476472 0.000000 0.000002 1.376771 83.674967 6.363633 2.771068 28.472014 -7.155176 4.023850 -20.167303 174.060869 4.423267 -0.000006 -0.000003 -0.843980 -17.581190 6.328255 1.195910 -0.000005 0.000004 -0.097874 71.529716 -5.861904 -4.795222 25.456964 7.355614 -0.000009 
58.034996 -17.827423 92.028801 -0.669266 -2.517327 48.214203 -2.799211 0.718432 0.563877 -1.602818 1.414527 1.155723 0.042334 1.428280 1.138674 25.063774 1.640313 10.462135 -9.139048 2.242406 10.457147 -16.577733 -53.162344 -19.498763 431.080204 -19.950648 478.414863 -0.000026 -0.000000 -0.000000 131.914203 -6.887804 16.796777 -0.000007 0.000006 -3.003679 -5.000204 -7.999518 -0.000100 -6.589715 58.326735 7.724462 -103.041122 124.167389 99.400044 0.000003 -0.000000 0.000003 36.720490 6.941096 -0.377996 0.000003 -0.000003 3.000000 -5.000200 7.999852 -0.000027 8.401424 -176.001230 2.884739 -179.999991 0.000005 -1.300994 159.090556 -0.209249 -0.465939 -0.000000 0.000001 1.387119 83.564708 6.362893 2.779272 28.610944 -7.140919 4.123846 -20.127746 174.216378 4.468218 -0.000005 -0.000004 -0.851616 -17.559981 6.343586 1.193355 -0.000006 0.000004 -0.098426 71.595259 -5.890272 -4.716387 25.456962 7.355616 -0.000011 
58.153996 -17.844925 92.035789 -0.608309 -2.556217 48.434466 -2.800575 0.727805 0.571529 -1.605732 1.432957 1.171416 0.039415 1.446889 1.154135 24.873925 2.174776 10.285547 -9.102873 1.655948 10.321586 -16.321628 -52.745473 -19.178000 431.681370 -19.444504 479.048595 -0.000026 -0.000001 0.000000 131.986521 -6.964117 16.951152 -0.000005 0.000006 -3.003680 -5.000206 -7.999518 -0.000097 -6.675862 58.896653 7.872724 -103.163157 124.081096 99.686631 0.000001 -0.000000 0.000002 36.935409 7.028691 -0.398122 0.000001 -0.000004 2.999998 -5.000200 7.999849 -0.000030 8.477980 -175.942668 2.892821 -179.999991 0.000005 -1.302004 159.055653 -0.127011 -0.454609 -0.000001 0.000003 1.397412 83.446388 6.362370 2.786744 28.757566 -7.125541 4.226676 -20.081303 174.372667 4.514981 -0.000005 -0.000004 -0.859268 -17.526629 6.357215 1.189733 -0.000006 0.000004 -0.098992 71.657748 -5.918274 -4.638419 25.456962 7.355616 -0.000010 
